<svg width="211" height="211" viewBox="0 0 211 211" fill="none" xmlns="http://www.w3.org/2000/svg">
<mask id="mask0" mask-type="alpha" maskUnits="userSpaceOnUse" x="0" y="0" width="211" height="211">
<circle cx="105.5" cy="105.5" r="105.5" fill="#E6EFF5"/>
</mask>
<g mask="url(#mask0)">
<circle cx="105.5" cy="105.5" r="105.5" fill="#E4F2FC"/>
<path d="M88.1854 114.287C30.5859 63.812 -1.48067 96.9468 -10.314 119.824L-13.9642 203.22L192.252 218.504L209.236 126.478C192.886 143.446 145.785 164.762 88.1854 114.287Z" fill="#C8E2F4"/>
<path d="M113.213 103.715C175.797 55.4103 204.481 94.73 211 120.428L206.259 211L-1.16931 205.07L-8.87378 103.715C5.74497 123.842 50.6285 152.02 113.213 103.715Z" fill="#8FC0E4" fill-opacity="0.63"/>
<path d="M117.159 135.266C177.217 86.9614 204.744 126.281 211 151.979L206.45 242.551L7.39353 236.621L0 135.266C14.0288 155.394 57.1008 183.571 117.159 135.266Z" fill="#86B2D2"/>
</g>
</svg>
